<svg xmlns="http://www.w3.org/2000/svg" viewBox="0 0 64 64"><path fill="#e3f2ff" d="M18 23H46V49H18z"></path><path fill="#ace3ff" d="M18 23H46V26H18z"></path><path fill="#faefde" d="M46 23H52V49H46z"></path><path fill="#ace3ff" d="M40.5 28L40.5 28c3.038 0 5.5 2.462 5.5 5.5V49H35V33.5C35 30.462 37.462 28 40.5 28zM23.5 28L23.5 28c3.038 0 5.5 2.462 5.5 5.5V49H18V33.5C18 30.462 20.462 28 23.5 28z"></path><path fill="#faefde" d="M8 49L56 49 56 53 60 53 60 59 4 59 4 53 8 53zM8 18L4 18 4 16 32 5 60 16 60 18 56 18 56 23 8 23zM12 23H18V49H12z"></path><path fill="#efd8be" d="M12 23H18V26H12zM46 23H52V26H46z"></path><path fill="#faefde" d="M29 23H35V49H29z"></path><path fill="#efd8be" d="M29 23H35V26H29zM4 54H60V59H4zM8 18H56V23H8z"></path><path fill="#8d6c9f" d="M11 23H13V49H11zM17 23H19V49H17zM45 23H47V49H45zM51 23H53V49H51zM28 23H30V49H28zM34 23H36V49H34z"></path><path fill="#8d6c9f" d="M59 60H5c-1.103 0-2-.897-2-2v-4c0-1.103.897-2 2-2h2v-2c0-1.103.897-2 2-2h46c1.103 0 2 .897 2 2v2h2c1.103 0 2 .897 2 2v4C61 59.103 60.103 60 59 60zM5 54v4h54v-4h-3c-.553 0-1-.448-1-1v-3H9v3c0 .552-.447 1-1 1H5zM55 24H9c-1.103 0-2-.897-2-2v-3H5c-1.103 0-2-.897-2-2v-.318c0-.828.498-1.559 1.27-1.861L31.635 4.069c.234-.093.496-.093.73 0l28 11C60.748 15.22 61 15.589 61 16v2c0 .552-.447 1-1 1h-3v3C57 23.103 56.103 24 55 24zM32 6.074L5 16.682V17h3c.553 0 1 .448 1 1v4h46v-4c0-.552.447-1 1-1h3v-.318L32 6.074z"></path><path fill="#8d6c9f" d="M12 56c-.553 0-1-.448-1-1v-2c0-.552.447-1 1-1s1 .448 1 1v2C13 55.552 12.553 56 12 56zM17 56c-.553 0-1-.448-1-1v-2c0-.552.447-1 1-1s1 .448 1 1v2C18 55.552 17.553 56 17 56zM22 56c-.553 0-1-.448-1-1v-2c0-.552.447-1 1-1s1 .448 1 1v2C23 55.552 22.553 56 22 56zM27 56c-.553 0-1-.448-1-1v-2c0-.552.447-1 1-1s1 .448 1 1v2C28 55.552 27.553 56 27 56zM32 56c-.553 0-1-.448-1-1v-2c0-.552.447-1 1-1s1 .448 1 1v2C33 55.552 32.553 56 32 56zM37 56c-.553 0-1-.448-1-1v-2c0-.552.447-1 1-1s1 .448 1 1v2C38 55.552 37.553 56 37 56zM42 56c-.553 0-1-.448-1-1v-2c0-.552.447-1 1-1s1 .448 1 1v2C43 55.552 42.553 56 42 56zM47 56c-.553 0-1-.448-1-1v-2c0-.552.447-1 1-1s1 .448 1 1v2C48 55.552 47.553 56 47 56zM52 56c-.553 0-1-.448-1-1v-2c0-.552.447-1 1-1s1 .448 1 1v2C53 55.552 52.553 56 52 56zM44 19H8c-.553 0-1-.448-1-1s.447-1 1-1h36c.553 0 1 .448 1 1S44.553 19 44 19zM52 19h-4c-.553 0-1-.448-1-1s.447-1 1-1h4c.553 0 1 .448 1 1S52.553 19 52 19zM32 15c-1.654 0-3-1.346-3-3s1.346-3 3-3 3 1.346 3 3S33.654 15 32 15zM32 11c-.552 0-1 .449-1 1s.448 1 1 1 1-.449 1-1S32.552 11 32 11zM47 34h-2c0-2.481-2.019-4.5-4.5-4.5S36 31.519 36 34h-2c0-3.584 2.916-6.5 6.5-6.5S47 30.416 47 34zM30 34h-2c0-2.481-2.019-4.5-4.5-4.5S19 31.519 19 34h-2c0-3.584 2.916-6.5 6.5-6.5S30 30.416 30 34z"></path></svg>