<?xml version="1.0" encoding="UTF-8" standalone="no"?>
<!-- Created with Inkscape (http://www.inkscape.org/) -->

<svg
   xmlns:dc="http://purl.org/dc/elements/1.1/"
   xmlns:cc="http://creativecommons.org/ns#"
   xmlns:rdf="http://www.w3.org/1999/02/22-rdf-syntax-ns#"
   xmlns:svg="http://www.w3.org/2000/svg"
   xmlns="http://www.w3.org/2000/svg"
   xmlns:sodipodi="http://sodipodi.sourceforge.net/DTD/sodipodi-0.dtd"
   xmlns:inkscape="http://www.inkscape.org/namespaces/inkscape"
   width="15.345833mm"
   height="14.816865mm"
   viewBox="0 0 15.345833 14.816865"
   version="1.1"
   id="svg8"
   sodipodi:docname="house3.svg"
   inkscape:version="0.92.4 (unknown)">
  <defs
     id="defs2" />
  <sodipodi:namedview
     id="base"
     pagecolor="#ffffff"
     bordercolor="#666666"
     borderopacity="1.0"
     inkscape:pageopacity="0.0"
     inkscape:pageshadow="2"
     inkscape:zoom="7.9195959"
     inkscape:cx="31.103598"
     inkscape:cy="13.435666"
     inkscape:document-units="mm"
     inkscape:current-layer="layer1"
     showgrid="false"
     inkscape:window-width="1920"
     inkscape:window-height="1027"
     inkscape:window-x="0"
     inkscape:window-y="0"
     inkscape:window-maximized="1"
     fit-margin-top="0"
     fit-margin-left="0"
     fit-margin-right="0"
     fit-margin-bottom="0" />
  <metadata
     id="metadata5">
    <rdf:RDF>
      <cc:Work
         rdf:about="">
        <dc:format>image/svg+xml</dc:format>
        <dc:type
           rdf:resource="http://purl.org/dc/dcmitype/StillImage" />
        <dc:title></dc:title>
      </cc:Work>
    </rdf:RDF>
  </metadata>
  <g
     inkscape:label="Layer 1"
     inkscape:groupmode="layer"
     id="layer1"
     transform="translate(-64.170908,-126.68383)">
    <g
       id="g3754"
       transform="matrix(0.26458333,0,0,0.26458333,63.301563,125.38946)">
      <g
         id="g4610"
         transform="translate(-58.928572,-47.857144)">
        <path
           style="opacity:1;fill:#e3f2ff"
           inkscape:connector-curvature="0"
           d="m 76.928572,70.857144 h 27.999998 v 26 H 76.928572 Z"
           id="path3713" />
        <path
           style="opacity:1;fill:#ace3ff"
           inkscape:connector-curvature="0"
           d="m 76.928572,70.857144 h 27.999998 v 3 H 76.928572 Z"
           id="path3715" />
        <path
           style="opacity:1;fill:#ace3ff"
           inkscape:connector-curvature="0"
           d="m 99.428572,75.857144 v 0 c 3.037998,0 5.499998,2.462 5.499998,5.5 v 15.5 H 93.928572 v -15.5 c 0,-3.038 2.462,-5.5 5.5,-5.5 z m -17,0 v 0 c 3.038,0 5.5,2.462 5.5,5.5 v 15.5 h -11 v -15.5 c 0,-3.038 2.462,-5.5 5.5,-5.5 z"
           id="path3719" />
      </g>
      <g
         id="g4596"
         style="fill:#ffb380">
        <path
           style="opacity:1;fill:#ffb380"
           inkscape:connector-curvature="0"
           d="m 46,23 h 6 v 26 h -6 z"
           id="path3717" />
        <path
           style="opacity:1;fill:#ffb380"
           inkscape:connector-curvature="0"
           d="m 8,49 h 48 v 4 h 4 v 6 H 4 V 53 H 8 Z M 8,18 H 4 V 16 L 32,5 60,16 v 2 h -4 v 5 H 8 Z m 4,5 h 6 v 26 h -6 z"
           id="path3721" />
        <path
           style="opacity:1;fill:#ffb380"
           inkscape:connector-curvature="0"
           d="m 29,23 h 6 v 26 h -6 z"
           id="path3725" />
      </g>
      <g
         id="g4600"
         style="fill:#c87137">
        <path
           style="opacity:1;fill:#c87137"
           inkscape:connector-curvature="0"
           d="m 12,23 h 6 v 3 h -6 z m 34,0 h 6 v 3 h -6 z"
           id="path3723" />
        <path
           style="opacity:1;fill:#c87137"
           inkscape:connector-curvature="0"
           d="m 29,23 h 6 v 3 H 29 Z M 4,54 h 56 v 5 H 4 Z M 8,18 h 48 v 5 H 8 Z"
           id="path3727" />
      </g>
      <g
         id="g4605"
         transform="translate(-73.285716,1.6071422)"
         style="fill:#5a4646;fill-opacity:1">
        <path
           style="fill:#5a4646;fill-opacity:1"
           inkscape:connector-curvature="0"
           d="m 84.57143,22.285715 h 2 v 26 h -2 z m 6,0 h 2 v 26 h -2 z m 28,0 h 2 v 26 h -2 z m 6,0 h 2 v 26 h -2 z m -23,0 h 2 v 26 h -2 z m 6,0 h 2 v 26 h -2 z"
           id="path3729" />
        <path
           style="fill:#5a4646;fill-opacity:1"
           inkscape:connector-curvature="0"
           d="m 132.57143,59.285715 h -54 c -1.103,0 -2,-0.897 -2,-2 v -4 c 0,-1.103 0.897,-2 2,-2 h 2 v -2 c 0,-1.103 0.897,-2 2,-2 h 46 c 1.103,0 2,0.897 2,2 v 2 h 2 c 1.103,0 2,0.897 2,2 v 4 c 0,1.103 -0.897,2 -2,2 z m -54,-6 v 4 h 54 v -4 h -3 c -0.553,0 -1,-0.448 -1,-1 v -3 h -46 v 3 c 0,0.552 -0.447,1 -1,1 z m 50,-30 h -46 c -1.103,0 -2,-0.897 -2,-2 v -3 h -2 c -1.103,0 -2,-0.897 -2,-2 v -0.318 c 0,-0.828 0.498,-1.559 1.27,-1.861 l 27.365,-10.7520003 c 0.234,-0.093 0.496,-0.093 0.73,0 l 28,11.0000003 c 0.383,0.151 0.635,0.52 0.635,0.931 v 2 c 0,0.552 -0.447,1 -1,1 h -3 v 3 c 0,1.103 -0.897,2 -2,2 z m -23,-17.9260003 -27,10.6080003 v 0.318 h 3 c 0.553,0 1,0.448 1,1 v 4 h 46 v -4 c 0,-0.552 0.447,-1 1,-1 h 3 v -0.318 z"
           id="path3731" />
        <path
           style="fill:#5a4646;fill-opacity:1"
           inkscape:connector-curvature="0"
           d="m 85.57143,55.285715 c -0.553,0 -1,-0.448 -1,-1 v -2 c 0,-0.552 0.447,-1 1,-1 0.553,0 1,0.448 1,1 v 2 c 0,0.552 -0.447,1 -1,1 z m 5,0 c -0.553,0 -1,-0.448 -1,-1 v -2 c 0,-0.552 0.447,-1 1,-1 0.553,0 1,0.448 1,1 v 2 c 0,0.552 -0.447,1 -1,1 z m 5,0 c -0.553,0 -1,-0.448 -1,-1 v -2 c 0,-0.552 0.447,-1 1,-1 0.553,0 1,0.448 1,1 v 2 c 0,0.552 -0.447,1 -1,1 z m 5,0 c -0.553,0 -1,-0.448 -1,-1 v -2 c 0,-0.552 0.447,-1 1,-1 0.553,0 1,0.448 1,1 v 2 c 0,0.552 -0.447,1 -1,1 z m 5,0 c -0.553,0 -1,-0.448 -1,-1 v -2 c 0,-0.552 0.447,-1 1,-1 0.553,0 1,0.448 1,1 v 2 c 0,0.552 -0.447,1 -1,1 z m 5,0 c -0.553,0 -1,-0.448 -1,-1 v -2 c 0,-0.552 0.447,-1 1,-1 0.553,0 1,0.448 1,1 v 2 c 0,0.552 -0.447,1 -1,1 z m 5,0 c -0.553,0 -1,-0.448 -1,-1 v -2 c 0,-0.552 0.447,-1 1,-1 0.553,0 1,0.448 1,1 v 2 c 0,0.552 -0.447,1 -1,1 z m 5,0 c -0.553,0 -1,-0.448 -1,-1 v -2 c 0,-0.552 0.447,-1 1,-1 0.553,0 1,0.448 1,1 v 2 c 0,0.552 -0.447,1 -1,1 z m 5,0 c -0.553,0 -1,-0.448 -1,-1 v -2 c 0,-0.552 0.447,-1 1,-1 0.553,0 1,0.448 1,1 v 2 c 0,0.552 -0.447,1 -1,1 z m -8,-37 h -36 c -0.553,0 -1,-0.448 -1,-1 0,-0.552 0.447,-1 1,-1 h 36 c 0.553,0 1,0.448 1,1 0,0.552 -0.447,1 -1,1 z m 8,0 h -4 c -0.553,0 -1,-0.448 -1,-1 0,-0.552 0.447,-1 1,-1 h 4 c 0.553,0 1,0.448 1,1 0,0.552 -0.447,1 -1,1 z m -20,-4 c -1.654,0 -3,-1.346 -3,-3 0,-1.6540003 1.346,-3.0000003 3,-3.0000003 1.654,0 3,1.346 3,3.0000003 0,1.654 -1.346,3 -3,3 z m 0,-4 c -0.552,0 -1,0.449 -1,1 0,0.551 0.448,1 1,1 0.552,0 1,-0.449 1,-1 0,-0.551 -0.448,-1 -1,-1 z m 15,23 h -2 c 0,-2.481 -2.019,-4.5 -4.5,-4.5 -2.481,0 -4.5,2.019 -4.5,4.5 h -2 c 0,-3.584 2.916,-6.5 6.5,-6.5 3.584,0 6.5,2.916 6.5,6.5 z m -17,0 h -2 c 0,-2.481 -2.019,-4.5 -4.5,-4.5 -2.481,0 -4.5,2.019 -4.5,4.5 h -2 c 0,-3.584 2.916,-6.5 6.5,-6.5 3.584,0 6.5,2.916 6.5,6.5 z"
           id="path3733" />
      </g>
    </g>
  </g>
</svg>
