<svg xmlns="http://www.w3.org/2000/svg" xmlns:xlink="http://www.w3.org/1999/xlink" version="1.1" id="Capa_1" x="0px" y="0px" viewBox="0 0 512 512" style="enable-background:new 0 0 512 512;" xml:space="preserve">
<path style="fill:#585A60;" d="M233.473,0c-44.379,0-84.579,34.784-84.579,86.645c0,13.747,0,24.423,0,40.091h169.157  c0-14.814,0-25.908,0-42.155C318.051,37.864,280.186,0,233.473,0z"/>
<path style="fill:#414356;" d="M170.44,84.58c0-43.065,32.185-78.58,73.805-83.874c-48.601-6.174-95.351,29.996-95.351,85.939  c0,13.747,0,24.423,0,40.091h21.546C170.44,107.29,170.44,104.292,170.44,84.58z"/>
<path style="fill:#2571A0;" d="M363.06,272.112l-92.201-38.568l-36.586,43.104L197.556,233.6l-92.072,38.512  c0,0-34.579,14.215-34.579,53.637v97.252c0,10.511,8.519,19.031,19.03,19.031c9.915,0,271.386,0,288.672,0  c10.512,0,19.033-8.521,19.033-19.031v-97.252C397.64,286.327,363.06,272.112,363.06,272.112z"/>
<path style="fill:#1A6489;" d="M102.624,423.001V311.474c0-27.646,16.996-42.883,27.156-49.526l-24.297,10.164  c0,0-34.579,14.215-34.579,53.637v97.252c0,10.511,8.519,19.031,19.03,19.031c16.33,0,24.282,0,31.722,0  C111.144,442.032,102.624,433.511,102.624,423.001z"/>
<g>
	<path style="fill:#EA976E;" d="M295.551,108.75c0,52.352,0.016,45.742-0.038,47.83c16.395,2.483,30.198-9.362,30.198-23.913   C325.71,118.09,311.898,106.3,295.551,108.75z"/>
	<path style="fill:#EA976E;" d="M171.4,108.768c-14.274-1.903-30.161,9.05-30.161,23.899c0,14.529,13.772,26.397,30.196,23.913   C171.385,154.576,171.4,160.849,171.4,108.768z"/>
</g>
<g>
	<path style="fill:#E2865D;" d="M318.152,115.577c-5.577-5.256-13.702-8.163-22.601-6.827c0,52.352,0.016,45.742-0.038,47.83   c8.924,1.351,17.06-1.563,22.639-6.825V115.577z"/>
	<path style="fill:#E2865D;" d="M171.4,149.757c-9.232-8.709-10.899-23.358,0-33.496v-7.492   c-14.274-1.903-30.161,9.05-30.161,23.899c0,14.529,13.772,26.397,30.196,23.913C171.392,154.858,171.4,156.87,171.4,149.757z"/>
</g>
<path style="fill:#EA976E;" d="M234.272,276.648l36.586-43.104l-1.294-30.17c-22.337,15.405-50.908,13.57-70.684,0.936l-1.325,29.29  L234.272,276.648z"/>
<path style="fill:#E2865D;" d="M233.013,236.396c-3.576-4.2-3.459-10.572-3.459-10.572l0,0l0.528-11.635  c-11.891-0.699-22.425-4.271-31.202-9.878l-1.325,29.29l36.716,43.047l16.497-19.435L233.013,236.396z"/>
<path style="fill:#5FAFE0;" d="M89.935,442.032c14.295,0,23.279,0,39.823,0V335.881c0-25.423-18.667-46.483-43.039-50.231  c-10.776,11.364-15.814,25.152-15.814,40.099v97.252C70.905,433.511,79.424,442.032,89.935,442.032z"/>
<path style="fill:#4A94CC;" d="M102.624,423.001c0-121.238-0.985-118.541,2.956-130.406c-5.649-3.485-12.031-5.895-18.861-6.946  c-10.685,11.265-15.814,25.02-15.814,40.099V423c0,10.511,8.519,19.031,19.03,19.031c16.33,0,24.282,0,31.722,0  C111.144,442.032,102.624,433.511,102.624,423.001z"/>
<path style="fill:#5FAFE0;" d="M381.823,285.649c-24.371,3.749-43.039,24.809-43.039,50.231v106.151c16.489,0,25.581,0,39.823,0  c10.512,0,19.033-8.521,19.033-19.031v-97.252C397.64,310.883,392.571,296.891,381.823,285.649z"/>
<path style="fill:#F0A479;" d="M275.13,75.227c-1.91-2.055-5.021-2.435-7.369-0.899c-25.164,16.437-58.443,26.829-91.144,24.479  c-3.318-0.252-6.178,2.397-6.178,5.744v50.531c0,32.475,25.444,62.135,63.935,62.135c34.261,0,62.137-27.876,62.137-62.135v-54.607  C296.512,97.456,296.641,98.351,275.13,75.227z"/>
<path style="fill:#EA9063;" d="M202.16,155.083V98.147c-8.452,1.001-17.015,1.273-25.542,0.66c-3.318-0.252-6.178,2.397-6.178,5.744  v50.531c0,41.793,39.766,70.285,79.277,60.215C220.555,208.25,202.16,182.691,202.16,155.083z"/>

























</svg>