<?xml version="1.0" standalone="no"?>
<!DOCTYPE svg PUBLIC "-//W3C//DTD SVG 20010904//EN"
 "http://www.w3.org/TR/2001/REC-SVG-20010904/DTD/svg10.dtd">
<svg version="1.0" xmlns="http://www.w3.org/2000/svg"
 width="1964.000000pt" height="1964.000000pt" viewBox="0 0 1964.000000 1964.000000"
 preserveAspectRatio="xMidYMid meet">
<metadata>
Created by potrace 1.11, written by Peter Selinger 2001-2013
</metadata>
<g transform="translate(0.000000,1964.000000) scale(0.100000,-0.100000)"
fill="#000000" stroke="none">
<path d="M9916 16335 c-8 -8 -22 -15 -30 -15 -9 0 -16 -3 -16 -7 0 -5 -26 -21
-58 -38 -31 -16 -59 -32 -62 -35 -8 -8 -43 -29 -70 -42 -14 -7 -27 -15 -30
-18 -5 -5 -28 -18 -112 -62 -21 -11 -38 -25 -38 -31 0 -6 -3 -8 -6 -5 -3 4
-45 -17 -92 -44 -48 -28 -123 -72 -167 -97 -44 -25 -89 -51 -100 -58 -11 -7
-28 -16 -37 -19 -10 -3 -18 -11 -18 -17 0 -6 -3 -8 -6 -4 -4 3 -23 -5 -43 -18
-19 -14 -39 -25 -44 -25 -4 0 -13 -5 -20 -10 -19 -17 -198 -120 -207 -120 -5
0 -15 -6 -22 -12 -7 -7 -26 -20 -43 -28 -16 -8 -34 -19 -40 -23 -22 -17 -478
-277 -486 -277 -5 0 -9 -5 -9 -11 0 -5 -4 -7 -10 -4 -5 3 -10 1 -10 -4 0 -6
-4 -11 -9 -11 -5 0 -70 -36 -145 -80 -76 -44 -141 -80 -146 -80 -4 0 -10 -3
-12 -7 -1 -5 -20 -17 -40 -28 -20 -11 -99 -56 -175 -100 -76 -44 -145 -83
-153 -88 -8 -4 -33 -18 -55 -32 -22 -14 -50 -30 -62 -35 -13 -5 -23 -14 -23
-20 0 -6 -5 -8 -11 -5 -5 4 -18 0 -27 -8 -9 -8 -44 -30 -77 -48 -33 -17 -67
-38 -76 -45 -8 -8 -19 -14 -23 -14 -5 0 -34 -15 -65 -34 -31 -19 -72 -43 -91
-54 -19 -10 -86 -49 -149 -86 -62 -36 -118 -66 -122 -66 -5 0 -9 -4 -9 -10 0
-5 -5 -10 -11 -10 -13 0 -152 -81 -161 -95 -4 -5 -8 -6 -8 -1 0 5 -9 1 -20 -9
-11 -10 -20 -14 -20 -9 0 5 -4 4 -8 -1 -9 -13 -130 -85 -142 -85 -5 0 -15 -6
-22 -13 -7 -7 -38 -26 -68 -43 -30 -16 -90 -50 -133 -76 -43 -27 -80 -48 -83
-48 -2 0 -34 -18 -70 -40 -36 -22 -68 -40 -70 -40 -5 0 -86 -52 -94 -60 -3 -3
-10 -6 -16 -7 -5 -1 -55 -28 -110 -60 -54 -33 -106 -62 -114 -66 -27 -14 -58
-33 -74 -46 -9 -7 -16 -10 -16 -6 0 5 -8 1 -17 -7 -10 -8 -38 -26 -63 -39 -25
-13 -47 -26 -50 -29 -3 -3 -16 -11 -29 -18 -13 -8 -39 -22 -57 -32 -123 -70
-250 -146 -252 -152 -2 -5 -7 -6 -12 -3 -5 3 -15 0 -22 -7 -8 -7 -23 -18 -33
-24 -11 -6 -47 -26 -80 -44 -77 -42 -108 -62 -116 -73 -3 -5 -10 -9 -15 -9 -9
0 -205 -108 -214 -118 -3 -3 -16 -11 -30 -18 -14 -7 -34 -18 -45 -25 -11 -7
-52 -30 -90 -51 -39 -22 -88 -51 -110 -65 -22 -14 -42 -26 -45 -26 -21 -5 -60
-31 -65 -44 -3 -8 -3 -12 0 -9 4 4 31 -9 60 -28 30 -19 59 -34 65 -34 5 0 10
-4 10 -8 0 -4 12 -13 28 -20 27 -12 97 -51 162 -90 19 -12 61 -35 93 -53 31
-17 57 -36 57 -40 0 -5 3 -8 8 -7 11 3 102 -45 102 -54 0 -4 5 -8 11 -8 6 0
39 -17 73 -37 33 -21 63 -38 66 -38 3 0 19 -9 35 -21 17 -11 41 -25 55 -32 29
-14 104 -57 140 -80 14 -9 39 -24 55 -33 17 -9 46 -26 65 -38 19 -12 47 -27
63 -33 15 -7 27 -16 27 -20 0 -4 5 -8 11 -8 6 0 24 -9 40 -21 16 -11 29 -17
29 -14 0 4 7 -1 16 -9 8 -9 22 -16 30 -16 8 0 14 -4 14 -8 0 -4 12 -13 28 -20
15 -6 42 -21 60 -32 78 -48 100 -61 142 -82 25 -13 47 -26 48 -30 2 -5 10 -8
18 -8 8 0 14 -4 14 -10 0 -5 4 -10 9 -10 10 0 223 -120 231 -130 3 -3 20 -12
38 -19 17 -8 32 -17 32 -22 0 -5 9 -9 20 -9 11 0 20 -4 20 -10 0 -5 6 -10 14
-10 8 0 16 -3 18 -8 2 -4 32 -23 68 -41 36 -19 67 -37 70 -41 3 -4 23 -16 45
-27 67 -33 220 -125 226 -135 3 -5 8 -8 10 -7 4 3 210 -111 219 -121 3 -3 24
-14 47 -25 24 -11 43 -23 43 -27 0 -5 4 -8 10 -8 5 0 31 -13 58 -29 27 -16 76
-44 108 -62 33 -17 61 -35 64 -38 3 -3 23 -15 45 -27 22 -12 80 -44 129 -72
49 -29 93 -52 97 -52 5 0 9 -3 9 -7 0 -5 10 -13 23 -19 23 -11 102 -55 149
-83 33 -20 152 -88 198 -114 19 -11 47 -28 63 -39 15 -11 27 -16 27 -13 0 4 7
-1 16 -9 8 -9 22 -16 30 -16 8 0 14 -4 14 -10 0 -5 6 -10 14 -10 7 0 19 -7 26
-15 7 -8 16 -12 21 -9 5 3 9 0 9 -5 0 -6 4 -11 10 -11 5 0 39 -18 75 -40 36
-22 70 -40 75 -40 6 0 10 -4 10 -9 0 -5 11 -12 25 -15 14 -4 25 -11 25 -17 0
-6 5 -7 10 -4 6 3 10 1 10 -4 0 -6 6 -11 13 -11 8 0 33 -14 55 -30 23 -17 42
-28 42 -25 0 3 18 -6 40 -20 22 -14 44 -25 50 -25 5 0 10 -4 10 -9 0 -5 8 -11
18 -14 16 -6 42 -20 162 -92 80 -47 316 -183 380 -218 30 -17 57 -33 60 -37 3
-3 21 -14 40 -23 19 -9 60 -33 90 -52 30 -19 69 -41 85 -49 17 -8 53 -29 80
-45 28 -16 61 -36 75 -44 14 -7 81 -46 149 -85 68 -40 127 -72 131 -72 5 0 10
-3 12 -7 3 -8 69 -46 115 -68 13 -5 23 -13 23 -17 0 -5 6 -8 14 -8 8 0 16 -3
18 -7 7 -17 119 -67 126 -58 4 6 18 16 32 23 34 18 77 42 125 71 22 13 56 33
75 44 19 10 109 62 200 115 91 52 180 103 198 114 17 10 47 26 65 37 17 10 48
27 67 37 19 11 40 25 48 32 7 7 18 10 23 7 5 -4 9 -1 9 5 0 6 11 15 25 20 14
5 50 26 80 45 31 19 59 35 64 35 5 0 14 7 21 15 7 9 19 14 27 11 7 -3 13 -2
13 2 0 7 100 70 190 118 19 10 37 21 40 24 3 3 28 17 55 30 28 14 52 28 55 31
8 10 151 89 160 89 5 0 10 4 12 8 3 7 42 31 171 102 15 8 69 40 120 70 50 30
95 54 100 52 4 -1 7 2 7 7 0 5 8 11 18 14 9 4 35 18 57 32 22 13 47 28 55 32
8 4 54 31 103 60 48 29 87 50 87 46 0 -3 8 1 18 9 21 18 192 119 207 121 5 1
15 9 22 17 7 8 13 11 13 5 0 -6 3 -6 8 0 6 10 34 27 135 84 87 49 108 61 144
83 21 13 49 29 63 36 14 7 50 28 80 46 30 19 58 32 62 29 5 -2 8 0 8 5 0 5 12
15 28 23 15 8 29 16 32 19 3 3 21 14 40 24 19 11 60 33 90 49 30 17 57 33 60
36 3 3 19 13 35 21 17 8 32 17 35 20 3 3 28 17 55 30 28 14 52 28 55 31 6 7
201 119 207 119 3 0 11 7 20 15 8 8 19 13 24 10 5 -4 9 -2 9 2 0 5 17 17 38
28 20 11 56 32 80 48 23 15 42 25 42 22 0 -4 7 1 16 9 8 9 20 14 25 11 5 -4 9
-1 9 4 0 6 7 11 15 11 8 0 15 5 15 10 0 6 7 10 15 10 8 0 15 5 15 10 0 6 5 10
10 10 6 0 51 24 100 53 50 28 103 59 117 67 15 8 67 39 115 68 49 28 91 52 93
52 2 0 41 22 86 50 46 27 85 48 86 46 2 -2 5 -1216 6 -2697 l2 -2694 -75 -44
c-41 -24 -116 -68 -166 -98 -50 -29 -96 -53 -102 -53 -7 0 -12 -4 -12 -10 0
-5 -4 -10 -10 -10 -5 0 -34 -16 -64 -35 -30 -19 -57 -35 -60 -35 -3 0 -45 -23
-93 -52 -181 -106 -249 -146 -293 -170 -25 -14 -142 -81 -260 -150 -118 -68
-223 -127 -233 -131 -9 -3 -17 -11 -17 -17 0 -5 -7 -10 -16 -10 -9 0 -28 -8
-42 -18 -15 -10 -34 -22 -42 -25 -8 -4 -28 -16 -45 -27 -16 -11 -37 -23 -45
-27 -8 -3 -31 -16 -50 -28 -19 -12 -66 -39 -105 -60 -38 -21 -77 -43 -85 -50
-8 -7 -22 -15 -30 -18 -8 -4 -37 -20 -65 -36 -27 -16 -72 -42 -100 -57 -27
-14 -52 -29 -55 -33 -3 -4 -16 -12 -30 -19 -14 -6 -47 -25 -75 -42 -27 -16
-62 -35 -77 -42 -16 -7 -28 -16 -28 -20 0 -4 -4 -8 -10 -8 -5 0 -44 -20 -86
-45 -41 -25 -77 -45 -79 -45 -2 0 -40 -23 -85 -50 -45 -28 -83 -50 -85 -50 -8
0 -131 -75 -137 -85 -4 -5 -8 -7 -8 -3 0 4 -24 -7 -52 -24 -46 -27 -447 -259
-518 -299 -14 -8 -28 -18 -31 -22 -3 -5 -10 -9 -15 -9 -5 -1 -18 -6 -29 -13
-74 -45 -198 -115 -206 -115 -5 0 -9 -4 -9 -8 0 -5 -20 -17 -45 -28 -25 -10
-45 -22 -45 -26 0 -4 -4 -8 -9 -8 -12 0 -181 -101 -182 -109 -4 -21 -3 -1351
1 -1351 3 0 43 22 90 50 47 27 90 50 97 50 6 0 13 4 15 8 2 7 292 177 478 280
25 14 73 43 108 64 34 21 64 38 67 38 3 0 34 18 70 40 36 22 70 40 75 40 6 0
10 4 10 9 0 5 8 11 18 14 9 4 42 21 73 39 69 40 153 89 237 137 35 20 80 46
100 58 20 12 51 29 67 37 17 9 39 21 49 28 51 34 126 78 130 78 3 0 50 26 103
58 54 32 105 61 113 65 8 4 29 16 45 26 17 11 46 28 65 39 40 22 60 33 230
132 154 89 195 112 240 136 19 11 37 22 40 25 3 3 33 21 66 40 34 19 97 54
140 79 43 25 83 47 89 49 5 2 17 9 25 16 13 11 42 28 155 89 11 6 22 13 25 16
3 3 14 10 25 16 78 42 527 301 665 383 52 31 106 62 120 68 14 7 32 17 40 23
56 37 170 97 174 92 3 -3 6 -1 6 5 0 6 55 42 122 79 66 38 146 84 177 102 31
18 65 37 76 42 11 6 36 20 55 32 32 19 95 55 145 82 11 6 22 13 25 16 3 3 16
11 29 18 13 8 38 22 55 31 17 10 87 50 154 90 68 39 127 71 132 71 6 0 10 5
10 10 0 6 6 10 13 10 7 0 19 6 26 12 6 7 17 13 24 13 9 0 13 762 14 3391 l3
3391 -28 14 c-15 8 -29 16 -32 19 -6 6 -43 27 -90 52 -19 10 -53 30 -75 43
-22 14 -47 28 -55 32 -8 4 -38 22 -67 40 -29 18 -54 33 -57 33 -2 0 -39 20
-80 45 -42 25 -81 45 -86 45 -6 0 -10 3 -10 8 0 4 -15 13 -32 21 -18 8 -35 17
-38 21 -3 4 -30 20 -60 37 -85 46 -125 70 -170 98 -22 14 -51 30 -63 35 -12 5
-40 21 -62 35 -22 14 -51 30 -65 37 -14 7 -27 15 -30 19 -3 4 -29 19 -58 34
-50 26 -56 27 -80 13 -15 -8 -61 -35 -102 -58 -41 -24 -76 -42 -78 -39 -2 2
-8 -4 -13 -13 -6 -10 -14 -18 -20 -18 -10 0 -169 -89 -179 -99 -3 -4 -30 -19
-60 -35 -30 -16 -63 -36 -72 -44 -10 -8 -18 -11 -18 -6 0 5 -4 4 -8 -1 -9 -13
-168 -105 -182 -105 -5 0 -10 -4 -10 -9 0 -5 -8 -11 -17 -14 -17 -6 -81 -42
-130 -73 -12 -8 -44 -26 -70 -41 -26 -14 -61 -34 -78 -44 -16 -10 -57 -33 -89
-51 -32 -18 -66 -37 -75 -43 -9 -5 -59 -34 -111 -64 -52 -30 -98 -59 -101 -64
-3 -5 -8 -7 -10 -6 -4 3 -80 -38 -141 -77 -21 -13 -41 -24 -46 -24 -4 0 -18
-9 -30 -20 -12 -11 -25 -21 -29 -22 -20 -3 -53 -22 -53 -31 0 -6 -3 -7 -7 -4
-3 4 -12 2 -20 -4 -18 -16 -94 -59 -115 -66 -10 -3 -18 -10 -18 -15 0 -5 -4
-6 -10 -3 -5 3 -10 1 -10 -4 0 -6 -6 -11 -13 -11 -7 0 -22 -8 -33 -17 -11 -10
-26 -19 -34 -21 -8 -2 -16 -8 -18 -13 -2 -5 -8 -9 -13 -9 -5 0 -64 -31 -130
-70 -66 -38 -124 -70 -129 -70 -4 0 -10 -4 -12 -8 -1 -5 -28 -22 -58 -38 -30
-17 -116 -66 -190 -109 -74 -44 -150 -86 -167 -94 -18 -8 -33 -19 -33 -23 0
-4 -4 -8 -10 -8 -5 0 -39 -18 -75 -40 -36 -22 -70 -40 -75 -40 -6 0 -10 -3
-10 -8 0 -4 -22 -18 -50 -31 -27 -13 -50 -28 -50 -33 0 -5 -4 -7 -9 -3 -5 3
-15 -1 -23 -8 -7 -8 -18 -16 -24 -18 -8 -3 -310 -177 -372 -214 -9 -6 -39 -23
-67 -38 -27 -15 -57 -32 -65 -37 -50 -33 -222 -130 -230 -130 -6 0 -10 -4 -10
-8 0 -4 -12 -13 -27 -19 -27 -12 -92 -48 -142 -80 -12 -8 -48 -29 -80 -45 -31
-17 -63 -37 -72 -44 -8 -8 -19 -14 -22 -14 -4 0 -52 -27 -108 -60 -55 -33
-103 -60 -105 -60 -3 0 -30 -16 -60 -35 -30 -19 -56 -35 -58 -35 -9 0 -131
-75 -138 -85 -5 -7 -8 -7 -8 0 0 6 -17 18 -37 28 -55 26 -98 51 -101 60 -2 4
-8 7 -13 7 -5 0 -39 18 -75 40 -36 22 -68 40 -70 40 -2 0 -33 18 -69 40 -36
22 -67 40 -69 40 -2 0 -45 25 -95 55 -51 30 -94 55 -96 55 -3 0 -37 20 -77 45
-39 24 -75 42 -80 39 -4 -3 -8 -1 -8 5 0 5 -12 16 -27 24 -95 49 -119 63 -123
68 -9 10 -152 89 -161 89 -5 0 -9 4 -9 9 0 5 -6 11 -12 13 -7 2 -62 31 -123
66 -60 35 -123 71 -140 80 -16 9 -57 34 -92 55 -35 20 -68 37 -73 37 -6 0 -10
5 -10 10 0 6 -4 10 -9 10 -4 0 -48 23 -97 51 -49 29 -105 61 -124 72 -19 11
-53 30 -75 41 -22 12 -42 24 -45 27 -3 3 -48 29 -100 59 -52 29 -107 61 -121
71 -14 10 -29 16 -33 12 -3 -3 -6 -1 -6 6 0 7 -4 9 -10 6 -5 -3 -10 -2 -10 2
0 5 -32 27 -71 48 -39 22 -88 50 -108 62 -20 12 -47 27 -61 33 -13 6 -27 14
-30 18 -6 9 -53 36 -102 59 -21 10 -38 21 -38 25 0 5 -5 8 -11 8 -6 0 -24 9
-40 21 -16 11 -29 17 -29 12 0 -4 -4 -3 -8 2 -6 10 -28 23 -132 83 -175 99
-357 206 -367 214 -7 6 -13 8 -13 4 0 -3 -8 1 -17 9 -10 8 -22 15 -26 15 -4
-1 -19 8 -34 20 -14 11 -32 20 -39 20 -8 0 -14 4 -14 8 0 4 -22 19 -50 33 -27
13 -50 27 -50 31 0 9 114 78 129 78 6 0 11 4 11 8 0 9 37 29 54 30 5 0 12 4
15 9 3 5 27 20 54 32 26 13 47 27 47 31 0 5 10 12 23 16 12 3 34 15 50 26 15
11 27 16 27 11 0 -4 4 -3 8 3 4 6 29 23 55 37 26 15 58 34 71 42 12 8 26 12
29 8 4 -3 7 -1 7 5 0 5 37 31 83 56 45 25 102 58 127 72 283 164 441 254 445
254 4 0 13 7 22 15 8 8 19 13 24 10 5 -4 9 -2 9 4 0 5 12 16 28 24 15 7 43 23
62 34 19 11 89 51 155 89 66 37 123 73 127 78 4 6 8 7 8 2 0 -4 15 3 34 18 19
14 41 26 49 26 9 0 17 3 19 8 3 7 98 64 153 92 17 8 32 18 35 21 3 3 30 19 60
36 30 16 78 44 106 61 28 18 56 32 63 32 6 0 11 5 11 10 0 6 4 10 9 10 5 0 43
20 84 44 41 25 78 42 81 39 3 -4 6 -2 6 4 0 6 14 16 30 23 17 7 30 16 30 20 0
6 32 19 48 20 1 0 12 9 24 20 12 11 26 20 31 20 5 0 29 14 54 30 24 17 46 30
48 30 2 0 43 23 91 50 48 28 89 50 91 50 3 0 11 7 20 15 8 8 19 13 24 10 5 -4
9 -2 9 2 0 5 17 17 37 28 21 11 77 44 126 73 48 28 92 52 97 52 6 0 10 5 10
12 0 6 3 8 6 5 4 -4 19 2 33 12 15 11 54 34 86 52 33 18 62 35 65 38 10 12 50
31 64 31 8 0 16 7 20 15 3 8 12 15 21 15 8 0 15 5 15 12 0 6 3 9 6 5 4 -3 26
7 49 23 23 16 45 26 49 23 3 -4 6 -1 6 5 0 7 4 12 10 12 5 0 33 15 62 32 55
34 78 47 150 87 23 13 46 28 49 33 3 5 15 10 27 11 12 0 24 7 27 15 3 7 9 10
15 7 5 -3 10 -2 10 3 0 4 19 18 43 31 23 12 49 26 57 31 43 28 222 130 227
130 4 0 21 11 40 26 18 14 33 22 33 18 0 -4 8 0 18 8 9 8 42 28 72 44 30 16
57 32 58 37 2 4 10 7 17 7 8 0 21 7 29 16 9 8 16 13 16 9 0 -4 6 0 14 7 8 7
33 24 56 38 34 20 41 34 15 31 -3 -1 -14 8 -25 19 -12 12 -25 18 -30 15 -6 -4
-10 -2 -10 3 0 8 -50 36 -59 32 -2 -1 -7 3 -10 8 -5 9 -53 37 -136 80 -16 9
-36 22 -43 29 -8 7 -18 11 -23 8 -5 -4 -9 -2 -9 3 0 5 -12 15 -27 23 -16 7
-44 23 -63 35 -19 11 -55 32 -80 46 -25 14 -85 48 -133 77 -49 28 -93 51 -98
51 -5 0 -9 3 -9 8 0 4 -15 13 -32 21 -18 8 -35 17 -38 20 -3 3 -25 17 -50 30
-25 14 -48 29 -51 34 -3 5 -10 9 -15 8 -5 0 -25 9 -44 21 -19 11 -36 19 -36
17 -1 -2 -11 4 -21 14 -11 9 -23 14 -26 10 -4 -3 -7 -2 -7 4 0 5 -21 21 -47
34 -27 13 -49 27 -51 32 -6 11 -19 8 -36 -8z"/>
<path d="M4083 11408 l2 -681 50 -29 c28 -16 60 -34 73 -40 12 -6 22 -15 22
-20 0 -5 5 -6 10 -3 6 3 10 1 10 -6 0 -7 3 -9 7 -6 3 4 11 3 17 -2 9 -8 77
-48 226 -134 19 -11 60 -33 90 -50 30 -16 62 -35 70 -42 8 -7 22 -15 30 -19 8
-3 42 -22 75 -41 33 -20 68 -38 78 -42 9 -3 17 -9 17 -14 0 -5 4 -9 9 -9 8 0
123 -63 181 -100 30 -18 235 -135 245 -139 6 -2 12 -7 15 -10 3 -3 30 -19 60
-35 30 -16 57 -32 60 -35 3 -4 23 -15 45 -26 22 -11 42 -23 43 -27 2 -5 10 -8
18 -8 9 0 12 -5 8 -12 -4 -6 -3 -8 3 -5 5 3 34 -9 64 -27 30 -17 61 -35 69
-39 8 -4 33 -18 55 -32 22 -14 47 -28 55 -32 8 -4 32 -17 53 -30 21 -13 53
-32 70 -42 18 -10 52 -30 77 -45 25 -15 53 -29 63 -33 9 -3 17 -9 17 -14 0 -5
4 -9 10 -9 7 0 243 -134 428 -243 26 -15 55 -30 65 -33 9 -4 17 -11 17 -17 0
-6 3 -7 7 -4 3 4 13 1 22 -7 9 -7 44 -29 79 -47 34 -18 71 -40 80 -49 10 -8
24 -16 32 -18 8 -2 17 -7 20 -10 3 -4 21 -15 40 -24 19 -10 55 -29 79 -44 223
-131 352 -204 361 -204 5 0 10 -4 10 -9 0 -5 8 -11 18 -14 9 -4 37 -18 62 -33
25 -15 59 -35 75 -44 40 -23 136 -79 155 -90 41 -25 149 -87 183 -105 20 -11
37 -23 37 -27 0 -5 9 -8 19 -8 11 0 23 -5 26 -11 4 -5 17 -14 28 -19 12 -5 43
-22 68 -37 25 -16 97 -57 160 -93 63 -35 116 -68 117 -72 2 -4 8 -8 13 -8 4 0
43 -20 85 -45 41 -25 77 -45 79 -45 3 0 123 -70 155 -90 8 -6 34 -19 58 -31
23 -12 42 -25 42 -30 0 -5 6 -9 14 -9 11 0 14 -245 14 -1585 0 -872 -3 -1585
-6 -1585 -4 0 -23 10 -42 22 -19 11 -55 32 -80 46 -25 14 -59 33 -77 43 -37
21 -100 58 -128 77 -11 6 -27 15 -35 19 -8 4 -74 42 -148 85 -73 43 -137 78
-142 78 -6 0 -10 5 -10 10 0 6 -4 10 -9 10 -9 0 -106 53 -161 88 -14 9 -27 17
-30 17 -3 0 -24 13 -47 28 -24 15 -44 27 -47 27 -2 0 -34 18 -70 40 -36 22
-70 40 -76 40 -5 0 -10 3 -10 8 0 4 -10 12 -23 17 -43 20 -112 60 -125 72 -6
6 -22 15 -35 19 -12 4 -24 10 -27 14 -3 3 -30 20 -60 37 -98 55 -122 69 -310
178 -102 59 -212 123 -245 142 -33 19 -73 42 -90 52 -16 10 -51 29 -77 44 -25
14 -63 36 -85 50 -21 13 -63 37 -93 54 -143 79 -225 128 -228 135 -2 4 -8 8
-14 8 -6 0 -44 20 -84 45 -41 24 -74 41 -74 37 0 -4 -4 -2 -8 4 -6 9 -207 129
-322 191 -14 8 -43 25 -65 39 -22 13 -51 30 -65 37 -14 6 -31 17 -38 24 -8 7
-17 11 -22 8 -5 -3 -10 -1 -12 3 -4 11 -123 82 -137 82 -6 0 -11 5 -11 10 0 6
-6 10 -12 10 -7 0 -23 8 -35 18 l-23 17 -1 435 c0 239 0 439 0 443 1 8 34 -9
216 -114 61 -35 112 -67 113 -71 2 -4 12 -8 23 -8 10 0 19 -4 19 -10 0 -5 7
-10 15 -10 8 0 15 -4 15 -10 0 -5 3 -9 8 -8 9 3 205 -112 214 -126 4 -6 8 -8
8 -4 0 4 24 -7 53 -24 28 -17 72 -42 97 -56 25 -14 68 -39 95 -57 28 -17 52
-31 55 -31 5 0 25 -12 88 -51 15 -10 29 -18 32 -18 10 -1 105 -59 111 -68 3
-5 9 -8 12 -8 8 0 56 -26 101 -54 17 -11 45 -27 61 -35 17 -8 32 -17 35 -20 9
-9 84 -51 113 -63 15 -6 27 -15 27 -19 0 -4 7 -8 15 -8 8 0 15 -5 15 -11 0 -5
4 -8 9 -5 5 3 14 -1 21 -9 7 -8 16 -15 20 -15 4 0 38 -18 74 -40 36 -22 70
-40 76 -40 5 0 10 -4 10 -10 0 -5 5 -10 11 -10 6 0 39 -17 73 -37 102 -63 120
-73 139 -79 9 -4 17 -10 17 -15 0 -5 5 -9 10 -9 6 0 54 -26 108 -57 81 -47
241 -140 430 -250 20 -12 53 -29 72 -39 19 -10 37 -20 40 -23 3 -4 15 -12 27
-18 l22 -13 0 695 0 695 -62 36 c-34 20 -77 45 -94 55 -18 11 -50 29 -70 41
-21 12 -62 35 -91 52 -30 17 -61 36 -70 41 -29 17 -175 102 -214 124 -90 50
-211 120 -228 131 -8 5 -37 22 -65 38 -27 16 -68 39 -90 52 -22 12 -60 34 -85
48 -25 13 -52 30 -60 36 -8 7 -26 18 -40 24 -14 7 -34 18 -45 25 -11 7 -58 34
-105 60 -47 26 -92 52 -100 58 -8 5 -26 15 -40 21 -14 7 -27 15 -30 19 -3 3
-32 21 -65 39 -101 55 -199 113 -216 127 -9 7 -19 10 -22 6 -4 -3 -7 -1 -7 5
0 7 -4 12 -10 12 -5 0 -50 24 -100 54 -49 30 -90 51 -90 48 0 -4 -4 -2 -8 3
-8 11 -33 27 -77 50 -16 9 -48 27 -70 40 -22 14 -51 30 -65 37 -14 7 -27 15
-30 18 -9 10 -172 100 -181 100 -5 0 -9 5 -9 11 0 5 -4 7 -10 4 -5 -3 -10 -2
-10 3 0 5 -8 12 -17 15 -18 6 -73 37 -83 47 -3 3 -18 12 -35 20 -16 8 -32 17
-35 20 -6 6 -53 33 -100 56 -19 10 -41 24 -48 31 -7 7 -24 16 -38 19 -13 3
-24 10 -24 15 0 5 -5 9 -10 9 -6 0 -29 12 -53 27 -23 15 -44 28 -47 28 -3 0
-16 8 -30 17 -44 27 -174 103 -192 110 -9 4 -36 19 -60 34 -47 30 -546 318
-590 341 -15 8 -30 19 -33 24 -4 5 -11 7 -16 4 -5 -4 -9 -2 -9 3 0 5 -6 9 -13
9 -11 0 -13 -316 -13 -1813 1 -1195 4 -1816 11 -1822 6 -5 71 -45 145 -87 74
-43 149 -86 165 -95 17 -10 68 -39 115 -66 47 -26 88 -52 91 -57 3 -5 8 -7 10
-6 2 2 32 -14 67 -34 35 -20 67 -37 72 -37 4 0 10 -4 12 -8 2 -5 39 -28 83
-52 44 -24 82 -46 85 -49 5 -6 41 -26 138 -77 28 -16 52 -32 52 -36 0 -4 5 -8
10 -8 14 0 173 -91 182 -104 4 -6 8 -7 8 -2 0 5 7 3 15 -4 15 -13 39 -27 125
-75 25 -14 52 -29 60 -34 65 -40 146 -86 153 -86 4 0 11 -4 15 -10 4 -5 25
-19 47 -31 45 -23 522 -297 720 -413 72 -42 142 -82 158 -90 15 -8 27 -18 27
-23 0 -5 4 -7 9 -4 5 3 19 -2 32 -12 13 -9 35 -23 48 -30 13 -8 110 -64 215
-124 105 -61 216 -124 246 -141 30 -17 83 -48 118 -69 34 -21 64 -38 66 -38 2
0 60 -33 127 -73 68 -40 131 -76 139 -80 8 -4 29 -15 45 -26 17 -10 48 -28 70
-41 22 -12 126 -72 230 -133 105 -61 215 -124 245 -140 30 -17 57 -33 60 -36
3 -3 21 -15 40 -25 83 -45 118 -65 168 -95 29 -17 57 -31 62 -31 4 0 10 -4 12
-8 2 -4 30 -23 63 -41 74 -42 76 -43 315 -181 187 -108 352 -203 388 -225 9
-6 40 -23 67 -38 28 -15 59 -33 70 -40 30 -19 86 -51 135 -79 138 -77 165 -93
168 -100 2 -4 8 -8 13 -8 5 0 39 -18 74 -39 l65 -40 1 27 c0 15 1 1340 1 2944
1 2089 -2 2921 -10 2930 -6 7 -33 25 -61 38 -28 14 -51 28 -51 33 0 4 -4 7
-10 7 -5 0 -47 23 -94 50 -47 28 -89 50 -95 50 -6 0 -11 5 -11 10 0 6 -4 10
-9 10 -5 0 -55 27 -112 61 -56 33 -113 65 -125 70 -13 4 -24 14 -24 20 0 6 -6
9 -14 6 -8 -3 -16 -3 -18 2 -3 7 -132 86 -183 111 -16 8 -32 18 -35 21 -3 3
-34 21 -70 40 -36 19 -67 37 -70 40 -9 10 -152 89 -161 89 -5 0 -9 3 -9 8 0 4
-23 18 -50 31 -28 14 -50 29 -50 33 0 4 -6 8 -14 8 -7 0 -30 11 -50 25 -20 13
-36 21 -36 17 0 -4 -4 -2 -8 4 -6 9 -219 134 -228 134 -3 0 -10 5 -17 11 -7 5
-61 38 -122 71 -60 34 -112 64 -115 67 -5 6 -63 38 -125 70 -16 9 -32 19 -35
22 -3 3 -21 14 -40 24 -19 9 -43 24 -52 33 -10 8 -18 12 -18 8 0 -4 -13 2 -29
13 -16 12 -34 21 -40 21 -6 0 -11 5 -11 10 0 6 -4 10 -10 10 -5 0 -31 13 -57
28 -105 63 -148 86 -155 84 -5 -1 -8 2 -8 8 0 5 -15 16 -32 25 -18 8 -40 19
-48 24 -42 26 -130 77 -165 95 -22 12 -55 31 -73 44 -17 13 -32 20 -32 17 0
-4 -12 3 -26 14 -15 12 -32 21 -40 21 -7 0 -14 4 -16 8 -1 5 -15 15 -30 23
-15 8 -120 68 -234 134 -227 131 -279 161 -339 195 -22 12 -44 26 -50 30 -5 4
-30 19 -55 32 -25 14 -61 34 -80 45 -19 11 -51 29 -70 39 -19 11 -37 22 -40
25 -3 3 -36 23 -75 44 -38 21 -87 49 -107 62 -21 12 -42 23 -48 23 -5 0 -10 3
-10 8 0 4 -17 15 -37 25 -21 10 -65 34 -98 54 -33 19 -85 49 -115 66 -30 17
-66 38 -79 49 -13 10 -28 18 -33 18 -4 0 -45 23 -89 50 -44 28 -83 50 -85 50
-2 0 -22 11 -44 25 -22 14 -40 22 -40 18 0 -5 -4 -3 -8 2 -7 11 -51 38 -142
88 -30 16 -63 37 -72 45 -10 8 -18 11 -18 6 0 -5 -4 -4 -8 1 -9 12 -61 44 -84
52 -10 3 -18 8 -18 12 0 4 -16 13 -35 21 -19 8 -35 17 -35 22 0 4 -4 8 -9 8
-8 0 -236 127 -298 166 -13 8 -26 14 -29 13 -4 0 -10 3 -13 8 -3 5 -26 20 -51
34 -25 13 -47 26 -50 30 -3 3 -21 13 -40 22 -19 10 -48 26 -65 37 -35 22 -82
48 -145 81 -25 13 -47 26 -50 29 -8 9 -59 40 -65 40 -2 0 -4 -307 -2 -682z"/>
</g>
</svg>
