<?xml version="1.0" standalone="no"?>
<!DOCTYPE svg PUBLIC "-//W3C//DTD SVG 20010904//EN"
 "http://www.w3.org/TR/2001/REC-SVG-20010904/DTD/svg10.dtd">
<svg version="1.0" xmlns="http://www.w3.org/2000/svg"
 width="290.000000pt" height="290.000000pt" viewBox="0 0 290.000000 290.000000"
 preserveAspectRatio="xMidYMid meet">
<metadata>
Created by potrace 1.11, written by Peter Selinger 2001-2013
</metadata>
<g transform="translate(0.000000,290.000000) scale(0.100000,-0.100000)"
fill="#000000" stroke="none">
<path d="M0 1450 l0 -1450 1450 0 1450 0 0 1450 0 1450 -1450 0 -1450 0 0
-1450z m2870 1431 c13 -1 15 -167 15 -1431 0 -946 -3 -1430 -10 -1431 -24 -3
-2841 -5 -2850 -2 -7 2 -10 487 -9 1431 1 785 2 1429 3 1432 1 4 2798 5 2851
1z"/>
<path d="M1909 2296 c-25 -6 -69 -26 -97 -44 -29 -17 -52 -30 -52 -27 0 2 10
21 22 41 l22 37 -52 -28 c-57 -31 -83 -60 -128 -143 -27 -50 -35 -57 -65 -60
-28 -3 -187 -32 -251 -47 -9 -2 -36 9 -60 24 -40 25 -132 71 -143 71 -2 0 -48
21 -102 46 -147 70 -191 84 -224 72 -57 -20 -89 -137 -84 -308 4 -150 41 -257
113 -332 33 -35 34 -37 11 -33 -13 2 -44 6 -69 9 -87 11 -115 19 -165 42 -67
32 -90 65 -90 131 0 42 -3 50 -15 43 -34 -19 -74 -66 -93 -109 l-20 -45 -27
32 c-14 18 -29 32 -32 32 -15 0 -51 -112 -55 -170 -7 -97 5 -130 51 -146 37
-13 216 -13 261 -1 11 3 51 15 90 26 38 12 77 21 85 21 22 -1 -31 -41 -91 -71
-46 -22 -49 -26 -43 -54 9 -47 62 -134 123 -205 473 -542 1062 -666 1523 -320
175 132 364 363 393 480 5 22 0 31 -40 59 -49 35 -124 128 -156 195 l-18 38
44 52 c25 28 45 58 45 66 0 9 4 20 9 26 6 5 20 47 32 94 31 115 34 345 6 402
-21 42 -61 62 -103 52 -52 -12 -288 -130 -338 -169 l-50 -38 -55 11 c-31 6
-65 13 -76 15 -11 3 -42 8 -68 11 -28 4 -51 14 -54 22 -3 8 8 40 23 72 23 46
41 65 92 100 69 45 61 53 -29 28z"/>
</g>
</svg>
