<?xml version="1.0" standalone="no"?>
<!DOCTYPE svg PUBLIC "-//W3C//DTD SVG 20010904//EN"
 "http://www.w3.org/TR/2001/REC-SVG-20010904/DTD/svg10.dtd">
<svg version="1.0" xmlns="http://www.w3.org/2000/svg"
 width="616.000000pt" height="616.000000pt" viewBox="0 0 616.000000 616.000000"
 preserveAspectRatio="xMidYMid meet">
<metadata>
Created by potrace 1.11, written by Peter Selinger 2001-2013
</metadata>
<g transform="translate(0.000000,616.000000) scale(0.100000,-0.100000)"
fill="#000000" stroke="none">
<path d="M4359 5340 c-15 -4 -51 -11 -80 -14 -59 -7 -206 -43 -228 -56 -9 -5
-28 -1 -50 11 -67 36 -147 21 -289 -53 -95 -50 -132 -78 -204 -152 -65 -67
-130 -161 -177 -254 -34 -67 -35 -68 -96 -76 -108 -14 -398 -66 -495 -89 -3
-1 -48 24 -100 54 -86 51 -138 77 -240 122 -186 81 -321 142 -392 176 -221
104 -260 121 -324 140 -122 37 -211 33 -303 -11 -216 -102 -316 -369 -315
-838 1 -236 34 -443 98 -614 14 -38 26 -70 26 -72 0 -8 -101 35 -145 60 -72
42 -81 63 -65 149 24 133 16 172 -47 232 -72 67 -173 73 -268 14 -73 -45 -165
-125 -198 -170 -26 -36 -27 -37 -63 -24 -44 15 -93 10 -155 -17 -40 -16 -52
-29 -87 -91 -78 -137 -131 -277 -149 -392 -10 -64 -10 -274 0 -343 10 -71 43
-167 70 -204 41 -56 155 -103 309 -128 76 -12 303 -15 394 -5 l61 6 23 -63
c20 -54 59 -137 118 -253 28 -53 144 -210 178 -240 7 -5 33 -35 59 -65 102
-118 330 -344 460 -455 39 -33 72 -63 75 -66 26 -31 446 -329 465 -329 2 0 21
-11 41 -25 58 -39 280 -150 403 -200 197 -81 387 -136 581 -170 147 -25 210
-30 420 -29 185 1 291 10 430 39 14 2 39 7 55 11 17 3 84 21 150 41 584 170
1119 573 1575 1188 139 186 192 274 235 389 42 110 51 178 35 245 -17 70 -59
125 -128 163 -100 56 -227 197 -320 354 l-30 51 50 63 c64 83 109 164 152 277
35 88 81 252 92 323 3 19 8 38 10 41 1 3 6 34 9 70 4 35 8 70 11 77 16 49 23
438 11 557 -18 168 -69 292 -153 372 -65 63 -198 113 -298 113 -51 0 -193 -35
-211 -51 -5 -5 -15 -9 -22 -9 -41 0 -550 -260 -686 -350 -109 -73 -119 -78
-150 -69 -17 5 -83 18 -146 29 -62 10 -115 21 -117 23 -15 14 125 121 231 177
148 78 179 116 177 218 -2 120 -80 199 -197 199 -27 0 -62 -3 -76 -7z m-9
-243 c-191 -105 -272 -178 -327 -293 -39 -81 -58 -213 -32 -215 8 0 21 -2 29
-3 8 -2 42 -6 75 -10 50 -6 352 -65 420 -82 62 -16 65 -15 133 39 131 104 245
169 557 318 287 138 391 161 474 106 96 -64 131 -178 136 -442 4 -254 -12
-393 -80 -685 -2 -8 -13 -44 -25 -80 -56 -163 -125 -277 -222 -371 l-59 -55
47 -90 c114 -221 265 -405 406 -497 61 -39 78 -55 78 -74 0 -39 -38 -142 -86
-232 -38 -72 -185 -285 -233 -339 -9 -9 -32 -37 -50 -61 -63 -80 -105 -125
-256 -276 -549 -550 -1185 -808 -1856 -751 -645 55 -1299 392 -1884 971 -84
83 -179 182 -213 220 -33 39 -74 86 -91 105 -91 103 -210 316 -245 438 l-15
52 114 56 c112 56 245 146 253 173 7 20 -65 7 -248 -46 -170 -49 -163 -47
-270 -69 -83 -17 -318 -25 -420 -14 -36 4 -100 17 -142 30 -70 21 -78 26 -88
55 -19 56 -22 78 -27 185 -6 110 6 213 33 296 22 69 97 218 111 222 6 2 20
-12 29 -30 22 -42 81 -115 99 -122 9 -3 17 7 25 32 30 97 87 193 149 250 36
33 143 113 147 110 1 -2 -3 -29 -11 -60 -25 -108 2 -215 73 -292 51 -55 197
-133 282 -151 8 -2 35 -8 60 -14 40 -9 111 -19 260 -36 25 -3 70 -9 100 -14
30 -5 56 -8 58 -6 2 2 -24 30 -58 62 -76 71 -146 175 -188 276 -37 87 -79 239
-88 312 -3 27 -8 53 -11 58 -12 19 -10 386 2 487 36 302 111 430 253 436 64 3
116 -14 267 -86 61 -29 175 -81 255 -117 80 -35 169 -75 198 -89 29 -13 55
-24 58 -24 19 0 233 -112 303 -158 l83 -55 192 37 c245 48 222 44 341 62 28 4
52 8 55 9 15 4 136 18 142 17 4 -1 34 53 67 121 100 204 180 293 337 372 83
41 105 42 77 5 -34 -45 -95 -151 -90 -156 2 -3 40 21 83 52 127 90 247 142
370 159 27 4 67 10 89 15 91 18 90 10 -5 -43z"/>
<path d="M4036 4989 c-58 -28 -103 -64 -193 -155 -96 -98 -125 -143 -152 -243
-11 -41 -23 -76 -25 -78 -15 -15 -26 16 -26 72 0 77 13 146 46 238 27 76 28
87 14 87 -27 0 -146 -202 -198 -335 -21 -54 -27 -57 -141 -70 -64 -7 -106 -13
-181 -25 -30 -5 -73 -12 -95 -16 -80 -12 -310 -65 -318 -73 -4 -4 1 -31 12
-60 10 -28 16 -51 13 -51 -4 0 -33 25 -66 55 -110 103 -243 179 -495 285 -136
56 -259 111 -391 172 -168 79 -246 110 -291 115 -43 5 -50 3 -84 -29 -43 -40
-43 -68 1 -68 96 0 434 -292 654 -566 72 -89 122 -188 140 -278 14 -66 1 -97
-20 -47 -25 61 -30 57 -140 -97 -152 -212 -203 -289 -199 -300 5 -13 193 42
319 93 161 64 347 170 450 255 73 60 83 63 184 56 50 -4 105 -9 121 -11 17 -3
53 -7 80 -10 169 -20 414 -91 572 -166 156 -74 269 -155 406 -291 32 -32 62
-58 67 -58 5 0 23 26 41 57 18 31 54 85 81 120 161 213 428 362 697 389 39 3
74 11 77 15 3 5 -14 44 -38 87 -24 42 -49 90 -56 106 -12 29 -12 29 6 13 10
-9 23 -17 29 -17 12 0 57 55 133 161 180 253 408 480 540 540 56 25 60 33 28
50 -49 26 -154 3 -305 -67 -41 -19 -76 -34 -78 -34 -6 0 -204 -99 -300 -150
-110 -58 -273 -167 -285 -191 -9 -16 -6 -22 25 -40 19 -12 35 -23 35 -26 0 -5
-85 3 -124 12 -12 3 -33 7 -49 9 -15 3 -35 7 -45 10 -9 3 -33 7 -52 10 -19 3
-123 21 -232 40 -108 19 -218 38 -245 41 -59 8 -71 22 -68 79 8 135 46 230
146 365 12 17 21 33 18 35 -2 2 -21 -4 -43 -15z"/>
<path d="M5592 4779 c-40 -20 -218 -187 -302 -284 -84 -96 -262 -336 -282
-380 -9 -20 -6 -32 18 -72 16 -26 33 -56 39 -65 5 -10 35 -59 66 -110 31 -51
88 -149 126 -218 123 -222 141 -249 158 -250 28 -1 124 119 173 216 73 145
137 392 159 614 11 114 6 456 -8 498 -24 76 -67 91 -147 51z"/>
<path d="M1408 4730 c-48 -28 -80 -237 -73 -480 2 -91 7 -181 10 -200 48 -292
116 -459 237 -581 78 -80 110 -93 142 -58 77 85 436 619 436 649 0 81 -526
608 -664 665 -41 17 -64 18 -88 5z"/>
<path d="M5059 3838 c6 -15 15 -35 20 -45 12 -20 161 -334 161 -338 0 -2 25
-55 55 -120 30 -64 55 -118 55 -119 0 -2 24 -55 54 -117 80 -169 230 -397 262
-399 6 0 21 11 34 25 l23 24 -50 53 c-79 83 -107 118 -155 193 -56 87 -167
296 -346 650 -90 178 -134 253 -113 193z"/>
<path d="M2642 3593 c-22 -42 -39 -173 -23 -173 5 0 13 10 17 23 4 12 20 49
35 81 16 33 29 65 29 73 0 19 -48 16 -58 -4z"/>
<path d="M4923 3562 c-28 -4 -28 -1 -4 -84 65 -226 36 -462 -78 -643 -47 -74
-40 -85 14 -22 54 63 91 133 125 237 33 101 43 188 44 389 l1 125 -40 0 c-22
1 -50 0 -62 -2z"/>
<path d="M4743 3515 c-72 -31 -172 -104 -173 -127 0 -15 62 -8 111 13 27 12
52 19 56 15 15 -14 31 -146 28 -225 -10 -233 -116 -401 -254 -403 -69 -1 -131
42 -188 131 -24 38 -37 50 -43 41 -31 -50 90 -203 200 -254 89 -41 196 -14
266 68 37 43 87 142 100 196 4 19 10 42 12 50 9 34 11 252 2 302 -16 86 -51
188 -69 197 -10 6 -28 4 -48 -4z"/>
<path d="M3380 3417 c0 -32 27 -67 66 -83 38 -16 100 -19 108 -5 7 10 -86 74
-139 97 -34 14 -35 14 -35 -9z"/>
<path d="M3705 3198 c-2 -7 -11 -40 -20 -73 -42 -150 -141 -267 -290 -342 -54
-28 -168 -50 -236 -46 -81 4 -204 46 -277 94 -35 23 -66 38 -69 35 -14 -13
126 -135 193 -169 114 -57 173 -70 291 -63 158 10 288 36 380 77 85 38 265
206 259 242 -2 16 -48 87 -56 87 -13 0 -27 -18 -43 -52 -22 -47 -29 -49 -15
-5 26 85 27 96 5 124 -26 34 -99 103 -110 103 -4 0 -9 -6 -12 -12z"/>
<path d="M1210 2809 c-104 -57 -101 -53 -85 -99 49 -140 115 -248 237 -388
610 -700 1370 -1143 2098 -1221 88 -9 394 -7 465 3 22 4 54 8 70 11 596 91
1143 444 1615 1044 176 223 273 380 287 465 5 32 3 35 -41 61 -52 30 -43 33
-111 -28 -39 -36 -100 -66 -155 -76 -35 -7 -157 -9 -335 -5 -304 6 -375 -2
-460 -49 -48 -26 -94 -110 -102 -184 -7 -74 -49 -189 -92 -252 -59 -87 -140
-154 -247 -207 -110 -55 -177 -116 -219 -201 -23 -47 -25 -60 -16 -81 13 -28
12 -31 -20 -38 -32 -6 -244 -6 -293 1 -94 13 -165 28 -221 48 -244 87 -397
248 -469 495 -17 60 -16 53 -16 91 0 33 -26 65 -46 57 -31 -12 -21 15 16 47
63 54 149 64 197 23 24 -21 25 -24 8 -24 -55 1 -57 -6 -15 -67 76 -110 209
-221 347 -288 108 -53 188 -69 356 -73 130 -4 152 -2 185 15 38 20 78 58 105
101 18 28 29 91 19 107 -4 6 -45 29 -92 50 -88 41 -186 109 -230 160 -14 15
-42 54 -62 84 -32 49 -48 62 -119 98 -122 62 -217 84 -379 86 -172 2 -201 -1
-590 -61 -367 -56 -343 -53 -505 -59 -128 -4 -216 4 -305 26 -158 39 -321 107
-450 186 -80 50 -233 162 -238 175 -6 13 -13 10 -92 -33z"/>
<path d="M4346 2546 c-103 -39 -76 -89 54 -103 107 -11 209 22 193 63 -16 43
-171 68 -247 40z"/>
<path d="M4555 2219 c-22 -17 -77 -49 -122 -71 l-81 -40 -26 -83 c-14 -46 -26
-86 -26 -89 0 -31 121 38 193 110 69 70 142 205 110 204 -5 0 -26 -14 -48 -31z"/>
<path d="M3432 1769 c2 -7 45 -34 95 -59 92 -48 211 -83 318 -95 33 -4 67 -9
76 -10 9 -2 21 0 27 4 28 17 -71 86 -172 121 -115 39 -353 66 -344 39z"/>
</g>
</svg>
