<?xml version="1.0" standalone="no"?>
<!DOCTYPE svg PUBLIC "-//W3C//DTD SVG 20010904//EN"
 "http://www.w3.org/TR/2001/REC-SVG-20010904/DTD/svg10.dtd">
<svg version="1.0" xmlns="http://www.w3.org/2000/svg"
 width="226.000000pt" height="226.000000pt" viewBox="0 0 226.000000 226.000000"
 preserveAspectRatio="xMidYMid meet">
<metadata>
Created by potrace 1.11, written by Peter Selinger 2001-2013
</metadata>
<g transform="translate(0.000000,226.000000) scale(0.100000,-0.100000)"
fill="#000000" stroke="none">
<path d="M377 2048 c-75 -89 -114 -216 -122 -392 -3 -60 -8 -82 -20 -88 -8 -5
-41 -31 -73 -57 -134 -113 -169 -163 -159 -236 7 -49 45 -101 89 -121 45 -20
121 -13 152 14 12 10 41 37 66 59 128 115 231 180 385 241 149 58 272 80 450
80 314 0 588 -110 838 -338 50 -45 84 -59 137 -55 108 8 173 129 120 223 -22
40 -111 123 -190 179 -22 16 -40 37 -41 48 -6 122 -18 210 -39 279 -21 68 -88
179 -113 189 -56 21 -211 -84 -296 -200 l-43 -60 -57 13 c-105 24 -215 32
-366 29 -154 -4 -173 -6 -284 -31 -35 -8 -65 -13 -65 -12 -18 34 -127 154
-169 186 -47 37 -138 82 -165 82 -4 0 -20 -15 -35 -32z"/>
<path d="M1005 1219 c-171 -25 -354 -112 -477 -227 -75 -71 -94 -131 -64 -203
17 -42 41 -64 86 -82 65 -25 124 -6 203 68 53 49 164 108 247 129 35 9 90 13
150 11 104 -3 128 -7 186 -30 38 -15 38 -15 17 2 -32 26 -56 89 -47 127 34
156 262 129 256 -30 -3 -68 -67 -128 -129 -121 -18 1 -33 2 -33 0 0 -1 24 -18
53 -37 28 -19 66 -47 82 -64 17 -16 41 -34 53 -41 54 -29 143 -18 181 23 25
27 48 84 45 114 -1 12 -2 31 -3 43 0 11 -24 45 -52 75 -102 107 -255 190 -428
231 -77 18 -240 24 -326 12z m-120 -115 c45 -21 67 -57 68 -113 3 -101 -104
-164 -190 -111 -70 42 -86 122 -38 186 42 55 97 68 160 38z"/>
<path d="M1096 548 c-145 -31 -195 -221 -84 -318 145 -127 360 19 299 202 -14
43 -79 105 -118 113 -52 11 -58 11 -97 3z"/>
</g>
</svg>
